<svg xmlns="http://www.w3.org/2000/svg" xmlns:xlink="http://www.w3.org/1999/xlink" viewBox="0 0 100 100"><defs><style>.cls-1{fill:#003049;}.cls-2{fill:none;}.cls-3{fill:#fff;}.cls-4{fill:#9d0208;}.cls-5{fill:url(#Dégradé_sans_nom_25);}.cls-6{fill:url(#Dégradé_sans_nom_25-2);}.cls-7{fill:url(#Dégradé_sans_nom_25-3);}.cls-8{fill:url(#Dégradé_sans_nom_25-4);}</style><linearGradient id="Dégradé_sans_nom_25" x1="9.75" y1="65.3" x2="9.75" y2="83.3" gradientUnits="userSpaceOnUse"><stop offset="0" stop-color="#f90"/><stop offset="0.49" stop-color="#ce4d04"/><stop offset="1" stop-color="#9d0208"/></linearGradient><linearGradient id="Dégradé_sans_nom_25-2" x1="20.28" y1="70.12" x2="20.28" y2="80.03" xlink:href="#Dégradé_sans_nom_25"/><linearGradient id="Dégradé_sans_nom_25-3" x1="34.07" y1="64.44" x2="34.07" y2="80.03" xlink:href="#Dégradé_sans_nom_25"/><linearGradient id="Dégradé_sans_nom_25-4" x1="46.44" y1="70.3" x2="46.44" y2="84.89" xlink:href="#Dégradé_sans_nom_25"/></defs><g id="Calque_2" data-name="Calque 2"><path class="cls-1" d="M63.55,34.45l-.11-.16a18.16,18.16,0,0,1-2.15-4.81,17.68,17.68,0,0,1,.45-8.32c.67-2.34,2-7,6.58-10.06a15.16,15.16,0,0,1,7.55-2.39,16,16,0,0,1,10.65,3.61A16.78,16.78,0,0,1,92.06,22a16,16,0,0,1,.39,4.45,15.8,15.8,0,0,1-1.84,6.29,16.39,16.39,0,0,1-2,2.92l1.47,2.61a32.69,32.69,0,0,1,1.82,3.46,22.71,22.71,0,0,1,.84,2.64,43.87,43.87,0,0,1,1.12,5.35c0,.33.1.8.14,1.38a10.93,10.93,0,0,1,0,1.59,8.39,8.39,0,0,1-.32,1.82,5.23,5.23,0,0,0-.12,1.62,4.38,4.38,0,0,0,.29,1.28,9.64,9.64,0,0,1,.56,1.11,1.69,1.69,0,0,1,.07,1.09c-.15.44-.45.41-.65.9a1.24,1.24,0,0,0,0,.94c.17.38.5.31.82.65A1.89,1.89,0,0,1,95,63.94c-.22.63-.59.53-1,1.29a2.66,2.66,0,0,0-.38,1.91c.15.56.47.57.63,1.21a2.29,2.29,0,0,1-.1,1.35,2.12,2.12,0,0,1-1.21,1.24,4.36,4.36,0,0,0,.72-1.12,2.2,2.2,0,0,0,.1-1.47c-.16-.54-.42-.49-.6-1a2.6,2.6,0,0,1,.24-2c.37-.66.73-.58,1-1.23a1.79,1.79,0,0,0,0-1.43c-.22-.42-.52-.31-.79-.75a1.84,1.84,0,0,1-.12-1.43c.15-.46.37-.46.5-1a1.86,1.86,0,0,0,0-.91c-.14-.62-.5-.63-.63-1.24a3.89,3.89,0,0,1,0-.92c0-.55.08-.67,0-.87s-.27-.21-.68-.56a3.2,3.2,0,0,1-.7-.82c-.21-.37-.12-.42-.36-.82a1.33,1.33,0,0,0-.68-.7c-.26-.09-.34.05-.6,0-.47-.1-.74-.65-.9-1-.29-.62-.13-.73-.39-1.33-.13-.32-.47-1.13-1.11-1.29-.37-.09-.46.14-.89.1-.78-.07-1.55-.87-1.48-1.48,0-.32.28-.33.41-.87,0-.18.15-.63-.1-.89a.45.45,0,0,0-.33-.17c-.29,0-.36.3-.61.31s-.56-.31-.65-.63.09-.48,0-.94-.24-.76-.46-.77-.23.26-.55.36a.83.83,0,0,1-.56,0c-.47-.2-.45-.86-.8-.89a.42.42,0,0,0-.27.07c-.15.11-.14.29-.21.29s-.08-.15-.22-.36a.85.85,0,0,0-.34-.34s-.28-.13-.43,0-.06.34-.2.46-.57,0-.82-.2-.14-.45-.41-.8a1.2,1.2,0,0,0-.68-.46c-.24,0-.29.06-.92.1-.35,0-.46,0-.53-.07a1.36,1.36,0,0,1-.12-.46.28.28,0,0,0-.2-.05c-.18.06-.11.41-.31.57s-.38.06-.68,0c-.45-.12-.49-.25-.88-.36-.08,0-.74-.19-.88,0s.16.38,0,.64a.46.46,0,0,1-.23.21.56.56,0,0,1-.6-.3,1.2,1.2,0,0,1,0,.3.92.92,0,0,1-.35.63.74.74,0,0,1-.81-.06c-.1-.09-.09-.15-.27-.68s-.26-.67-.39-.69a.25.25,0,0,0-.18,0c-.14.1-.1.28-.19.55a.82.82,0,0,1-.34.49.78.78,0,0,1-.5,0c-.3-.08-.33-.19-.55-.25a.84.84,0,0,0-.77.21.78.78,0,0,0-.18.47c0,.27.15.32.16.55s-.36.77-.64.74-.22-.2-.41-.21a.58.58,0,0,0-.51.45c-.07.32.26.44.32.89a.94.94,0,0,1-.39,1c-.22.11-.35-.08-.66,0s-.54.31-.55.56.27.29.34.66c0,.06.07.37-.1.5a.4.4,0,0,1-.32,0,5.56,5.56,0,0,0-1,0,1.41,1.41,0,0,0-.89,1.61c.13.34.43.35.44.62,0,.43-.81.73-1,.82-.42.16-.58.09-.63.06s-.16-.29-.33-.37a.7.7,0,0,0-.65.24,1,1,0,0,0-.21.75c.05.37.28.41.34.82a1.14,1.14,0,0,1-.08.61s-.23.51-.53.5-.21-.18-.41-.19-.41.19-.48.27a1.07,1.07,0,0,0-.23.49.72.72,0,0,0,.07.54c.14.22.34.18.43.41a.45.45,0,0,1,0,.29.54.54,0,0,1-.29.29s-.7.36-1,.55a1.93,1.93,0,0,0-.68.82,1.86,1.86,0,0,0-.11,1c.08.44.28.47.55,1.12.18.42.35.82.18,1.11s-.2.15-.57.34a2.5,2.5,0,0,0-1.06.72,1.57,1.57,0,0,0,0,1.29c.14.4.28.41.79,1.25a4,4,0,0,1,.4.74c.17.42.37,1,.15,1.32s-.77.18-1.18.69a.85.85,0,0,0-.23.68c.08.27.35.29.71.55a2.6,2.6,0,0,1,.94,1.35,2.09,2.09,0,0,1,0,1.25,1.17,1.17,0,0,1-.34.5,1.14,1.14,0,0,1-.68.21,1.38,1.38,0,0,0,.66-.7,1.44,1.44,0,0,0,0-1,2.39,2.39,0,0,0-.66-1c-.5-.51-.79-.46-1-.86a1.19,1.19,0,0,1,0-.9c.22-.46.64-.35,1-.85a1.62,1.62,0,0,0,.28-1.09c0-.22-.1-.29-.58-1.08a7.2,7.2,0,0,1-.52-.9,1.94,1.94,0,0,1-.11-1.42,2.49,2.49,0,0,1,1-1,.8.8,0,0,0,.35-.32.93.93,0,0,0,0-.66,5.78,5.78,0,0,0-.31-.87,4.6,4.6,0,0,1-.14-1.36c0-.49,0-.52,0-.8a3,3,0,0,0-.37-1.13c0-.73,0-1.61.09-2.62,0-.74.15-1.87.33-3.12a25.89,25.89,0,0,1,1-5A21.44,21.44,0,0,1,62.5,38.6a28.18,28.18,0,0,1,2.24-2.7A11.68,11.68,0,0,1,63.55,34.45Z"/></g><g id="Calque_3" data-name="Calque 3"><path class="cls-2" d="M90.73,66a4.56,4.56,0,0,0-1.17-2.15,5.59,5.59,0,0,0-1.23-.61c-.29,0-.69,0-1.16.08-.2,0-1.23.19-1.23.19s-1.18.28-1.94.53a8.55,8.55,0,0,0-3,1.36,4.13,4.13,0,0,0-1.33,1.59,2.49,2.49,0,0,0-.22,1.7,2.07,2.07,0,0,0,.19.43c.3.52.93,1.65,2.18,3.92a3.89,3.89,0,0,0,1.07,1.41,3,3,0,0,0,.91.45,3.18,3.18,0,0,0,1.32.1,9.5,9.5,0,0,0,2-.26,3.45,3.45,0,0,0,2.37-1.77,9.15,9.15,0,0,0,1-2.4,9.5,9.5,0,0,0,.42-3.43A5.79,5.79,0,0,0,90.73,66Z"/><path class="cls-1" d="M79.72,61.52l1.06-2.73A19.82,19.82,0,0,1,84.24,58c1.26-.2,3.24-.23,3.73-.29l3.38,3.19L88,58.57Z"/><path class="cls-1" d="M73,61.48l-1-2.74a29.24,29.24,0,0,0-7-1.06L61.16,60.6,65,58.4Z"/><path class="cls-2" d="M64.21,63.15A3,3,0,0,1,65,63a3.49,3.49,0,0,1,1.23.12,17.19,17.19,0,0,1,4.55,1.55,5.93,5.93,0,0,1,1.43,1.06,3.36,3.36,0,0,1,.92,1.4,3.32,3.32,0,0,1,0,1.7,6,6,0,0,1-.75,1.76,10.14,10.14,0,0,1-2.49,3.17l-.56.49a2.26,2.26,0,0,1-.8.36,10.08,10.08,0,0,1-1.55.1,4.2,4.2,0,0,1-1.59-.13A4.73,4.73,0,0,1,63,72.68a7.94,7.94,0,0,1-.72-2.3,11.75,11.75,0,0,1-.42-2.78,5.51,5.51,0,0,1,.27-2.2,4.5,4.5,0,0,1,2.13-2.25"/></g><g id="Calque_4" data-name="Calque 4"><path class="cls-3" d="M64.26,63.06,65.74,63a26.66,26.66,0,0,1,2.65.71,11.81,11.81,0,0,1,1.87.71,6.79,6.79,0,0,1,2.13,1.51,3,3,0,0,1,.74,1.26c.1.38,0,.69.06.94a6.55,6.55,0,0,1-.74,2,35.15,35.15,0,0,1-3,3.9s-.13.23-1.13.58a4.87,4.87,0,0,1-4.12-.55,4.35,4.35,0,0,1-1.39-1.67,6.86,6.86,0,0,1-.52-1.65,12.4,12.4,0,0,1-.48-3.48,5,5,0,0,1,.55-2.55A4.2,4.2,0,0,1,64.26,63.06Z"/><path class="cls-2" d="M79.68,66.83l1-1.32a7.84,7.84,0,0,1,1.29-1q1.45-.5,3.12-.93a17.58,17.58,0,0,1,2.36-.55,2.25,2.25,0,0,1,.87,0,2.55,2.55,0,0,1,1.39.84,4.59,4.59,0,0,1,1.09,2.06,7.1,7.1,0,0,1,0,2.77,11.4,11.4,0,0,1-.62,2.71,5.57,5.57,0,0,1-1,1.84,4.12,4.12,0,0,1-1.62,1.23,8.58,8.58,0,0,1-2.29.29,4.54,4.54,0,0,1-1.38,0,3.28,3.28,0,0,1-1.65-1.23,14.08,14.08,0,0,1-1.61-2.67,8.34,8.34,0,0,1-.87-1.71A6.08,6.08,0,0,1,79.42,68,4.73,4.73,0,0,1,79.68,66.83Z"/><path class="cls-1" d="M76.26,84.56l1.92-1.08,3.61,3.68a9.47,9.47,0,0,1-2.13-.39s-.29-.11-.63-.21a3.76,3.76,0,0,0-.53-.12,5.25,5.25,0,0,0-.6-.07c-.74,0-1.58,0-1.58,0-1.41,0-1.42,0-1.8.05-.57,0-1,.13-1.15.16l-.85.21a12.18,12.18,0,0,1-1.75.38l-.3,0,3.74-3.72Z"/><path class="cls-1" d="M70.81,87.34a16.16,16.16,0,0,1,1.79-.44,17.11,17.11,0,0,1,2.24-.25,21.48,21.48,0,0,1,2.69,0,8.85,8.85,0,0,1,1.53.19c.35.08.47.14.83.23a8.48,8.48,0,0,0,1.53.24,8.51,8.51,0,0,1-.61,1.27,3.33,3.33,0,0,1-1.39,1.55,3.28,3.28,0,0,1-.76.2,1.5,1.5,0,0,1-.6,0c-.28-.08-.31-.23-.64-.42a2.33,2.33,0,0,0-.76-.27,3,3,0,0,0-1,0,1.93,1.93,0,0,0-.69.13c-.36.15-.37.3-.71.45a1.58,1.58,0,0,1-.79.11,1.79,1.79,0,0,1-.91-.4,4.1,4.1,0,0,1-1-1.15C71.39,88.36,71.11,87.9,70.81,87.34Z"/></g><g id="Calque_5" data-name="Calque 5"><path class="cls-4" d="M18.41,94.8,10,83.71v6.44c0,1.66.11,4.47,3.36,4.47v.18H6.28v-.18c3.08,0,3.52-2.83,3.52-4.47V83.46l-1-1.38C7.42,80.44,6.55,80.46,6,80.42v-.16h7.11L20.67,90.4V84.89c0-1.93-.72-4.47-3.19-4.47v-.16h6.75v.16c-2.76,0-3.36,2.54-3.36,4.47V94.8Z"/><path class="cls-4" d="M32.26,92.86l.13.08a3.18,3.18,0,0,1-3.21,2c-1.76,0-3.77-.66-3.77-3.16V85.44H24v-.18h1.4V82.49l3.75-.43v3.2H32v.18H29.16v6.32c0,1.16.44,1.72,1.74,1.72A1.84,1.84,0,0,0,32.26,92.86Z"/><path class="cls-4" d="M44.23,90c0,2.71-1.76,5-5.75,5s-5.76-2.25-5.76-5,1.77-5,5.76-5S44.23,87.3,44.23,90ZM39.7,90c0-3.74,0-4.77-1.22-4.77s-1.25,1-1.25,4.77,0,4.77,1.25,4.77S39.7,93.77,39.7,90Z"/><path class="cls-4" d="M50.32,94.64v.16H44.74v-.16c.85-.23.87-1.1.87-2.17V81.75c0-.73-.27-1-1.18-1.33v-.16l5-.87V92.47C49.4,93.6,49.51,94.43,50.32,94.64Zm8.14,0v.18H54.33c-1.54,0-1.74-.37-3.23-2.44-.67-.88-1.3-1.79-1.3-1.79l2.61-2.48c1-1,1.25-2.67-.15-2.67v-.16h6.06v.16c-1.27,0-4.19,1.28-6.2,3.2l3.75,4.43A3.36,3.36,0,0,0,58.46,94.62Z"/><path class="cls-4" d="M69.49,90c0,2.71-1.76,5-5.75,5S58,92.74,58,90s1.77-5,5.76-5S69.49,87.3,69.49,90ZM65,90c0-3.74,0-4.77-1.22-4.77s-1.25,1-1.25,4.77,0,4.77,1.25,4.77S65,93.77,65,90Z"/><path class="cls-5" d="M14.35,65.3v.17c-1,0-1,0-1,1.28v9.34c0,5-4.46,6.71-8.1,7.21l-.07-.17c1.92-.64,3.68-2.56,3.68-7V69.27c0-3.8,0-3.8-.93-3.8V65.3Z"/><path class="cls-6" d="M26.73,79.31v.16L22.45,80c-.6.08-.63-.39-.63-.39v-1.7C21.64,79,20.55,80,18.7,80s-3.61-.68-3.61-3.16V72.29c0-1.24,0-1.43-1.25-1.6v-.16l5.08-.41v6.69c0,1.16.32,1.71,1.45,1.71a1.37,1.37,0,0,0,1.45-1.15v-5c0-1.26.09-1.53-1.05-1.66v-.16l4.82-.41V78C25.59,79,25.79,79.21,26.73,79.31Z"/><path class="cls-7" d="M40.82,79.33v.16L36.54,80c-.63.1-.63-.37-.63-.37V77.8C35.56,79.27,33.8,80,32.21,80c-3.1,0-4.88-1.65-4.88-4.89,0-3.43,2.38-5,5.6-5,1.74,0,2.58.39,3,.91V66.79c0-.72-.22-1-1.13-1.32V65.3l4.9-.86V78C39.68,79,39.91,79.23,40.82,79.33Zm-4.91-6.09c0-1.9-.95-2.94-2.09-2.94s-2,.85-2,4.36c0,2.6.58,4.07,2.2,4.07a2.13,2.13,0,0,0,1.85-1.34Z"/><path class="cls-8" d="M53,70.3v.17c-1.61,0-2.12.78-3.3,3.39l-2.79,7.41c-.69,2.07-1.34,2.87-1.85,3.27a2.48,2.48,0,0,1-2.14.2,1.74,1.74,0,0,1-1-2.33,2,2,0,0,1,2.52-.89,1.7,1.7,0,0,1,1,1c.09.31.65.7,1.27-1.36l-5.09-9.38a2.2,2.2,0,0,0-1.8-1.28V70.3h7v.17c-1.5,0-.51,1.73-.51,1.73l2.27,4.09.92-2.5s1.09-3.32-1.7-3.32V70.3Z"/></g><g id="Calque_7" data-name="Calque 7"><path class="cls-1" d="M93,61.27H89.81c-1.94,0-1.94,0-2.46,0a14.4,14.4,0,0,0-4.73.89,11.8,11.8,0,0,0-3.72,1.92,4.15,4.15,0,0,1-1.53.89,3.46,3.46,0,0,1-2,0,3.12,3.12,0,0,1-.69-.26,3.8,3.8,0,0,1-.83-.57,10.46,10.46,0,0,0-2.24-1.34A14.1,14.1,0,0,0,68,61.49a12.93,12.93,0,0,0-2.38-.22c-1.42-.05-3.41-.08-5.89,0,0,1,0,2,0,3.07a12.31,12.31,0,0,1,.74,2.29c.22,1,.16,1.21.41,2.27a13.6,13.6,0,0,0,.71,2.23,9.65,9.65,0,0,0,1.19,2.21,7.42,7.42,0,0,0,1.53,1.6,5.47,5.47,0,0,0,1.89,1,5.23,5.23,0,0,0,2.39,0,6,6,0,0,0,2.56-1,7.74,7.74,0,0,0,2.19-2.41,13.09,13.09,0,0,0,1.05-2.18,7.48,7.48,0,0,1,.8-1.84,1.82,1.82,0,0,1,.81-.77,1,1,0,0,1,.66,0,1.15,1.15,0,0,1,.53.35,3,3,0,0,1,.63.87,9.38,9.38,0,0,1,.52,1.29A11,11,0,0,0,79.21,72a8.73,8.73,0,0,0,1.4,2,6.68,6.68,0,0,0,1.62,1.3,6.15,6.15,0,0,0,4.21.54A5.8,5.8,0,0,0,88.32,75a7.21,7.21,0,0,0,1.61-1.57,9.7,9.7,0,0,0,1.19-2.21,10.85,10.85,0,0,0,.66-1.84c.26-1,.18-1.3.53-2.87.08-.34.17-.73.32-1.19a12.18,12.18,0,0,1,.42-1.15ZM73.64,69.59a6.76,6.76,0,0,1-.7,1.89,7.34,7.34,0,0,1-1.63,2.3,5.05,5.05,0,0,1-1.93,1.14A4.67,4.67,0,0,1,67,75a5.36,5.36,0,0,1-2.41-1.19,7,7,0,0,1-1.72-2.48,10.41,10.41,0,0,1-.77-2.58A8.13,8.13,0,0,1,62,66.14a4.2,4.2,0,0,1,.42-1.49,3.32,3.32,0,0,1,.75-.87,2.67,2.67,0,0,1,1-.47,7.09,7.09,0,0,1,1.93-.17c2.57.07,2.4,0,2.65.07a6.88,6.88,0,0,1,2.53.87,4.75,4.75,0,0,1,1.37,1.12,4.59,4.59,0,0,1,1,1.86A5.56,5.56,0,0,1,73.64,69.59Zm17.13-1.34a10,10,0,0,1-.46,2.13,9.21,9.21,0,0,1-1,2.09A6.23,6.23,0,0,1,88.08,74a5,5,0,0,1-1.56.87,5.17,5.17,0,0,1-2.29.22,4.31,4.31,0,0,1-2.07-.75,5.87,5.87,0,0,1-1.41-1.43,9.19,9.19,0,0,1-1.14-2.09,6,6,0,0,1-.53-1.69,5.22,5.22,0,0,1,.65-3.25,4.65,4.65,0,0,1,.7-.94,5.27,5.27,0,0,1,2-1.29,10.06,10.06,0,0,1,2.75-.42,16.83,16.83,0,0,1,2.45,0,3.5,3.5,0,0,1,1.65.43,2.62,2.62,0,0,1,.86.74,3.62,3.62,0,0,1,.6,1.59A7,7,0,0,1,90.77,68.25Z"/></g></svg>