<svg xmlns="http://www.w3.org/2000/svg" viewBox="0 0 100 100"><defs><style>.cls-1{opacity:0.68;}.cls-2,.cls-36,.cls-40{fill:#1d4851;}.cls-24,.cls-3{font-size:3px;}.cls-3,.cls-38,.cls-41,.cls-46{fill:#fff;}.cls-18,.cls-24,.cls-28,.cls-3,.cls-31,.cls-38,.cls-41,.cls-46{font-family:Roboto-Light, Roboto;font-weight:300;}.cls-4{fill:#370617;}.cls-5{letter-spacing:-0.01em;}.cls-43,.cls-6{opacity:0.47;}.cls-7{fill:#faa307;}.cls-8{letter-spacing:-0.01em;}.cls-16,.cls-17,.cls-23,.cls-26,.cls-27,.cls-29,.cls-30,.cls-35,.cls-36,.cls-9{opacity:0.5;}.cls-10,.cls-17{fill:#dc2f02;}.cls-11{opacity:0.49;}.cls-12{fill:#d62828;}.cls-13{opacity:0.56;}.cls-14,.cls-27,.cls-44{fill:#03071e;}.cls-15{letter-spacing:0.01em;}.cls-16{fill:#f7931e;}.cls-18{font-size:1.5px;}.cls-18,.cls-24,.cls-28,.cls-31{fill:#f2f2f2;}.cls-19{letter-spacing:-0.01em;}.cls-20{letter-spacing:0.01em;}.cls-21{letter-spacing:-0.01em;}.cls-22{letter-spacing:0em;}.cls-23{fill:#ffba08;}.cls-25{opacity:0.97;}.cls-26,.cls-45{fill:#d00000;}.cls-28,.cls-38{font-size:2px;}.cls-29{fill:gray;}.cls-30,.cls-39{fill:#f48c06;}.cls-31{font-size:2.5px;}.cls-32{letter-spacing:-0.02em;}.cls-33{letter-spacing:-0.01em;}.cls-34{letter-spacing:0em;}.cls-35{fill:#6a040f;}.cls-37{fill:#4d4d4d;opacity:0.53;}.cls-39,.cls-40,.cls-44,.cls-45{opacity:0.58;}.cls-41{font-size:1.4px;}.cls-42{letter-spacing:-0.01em;}.cls-43{fill:#333;}.cls-46{font-size:1.2px;}.cls-47{letter-spacing:-0.01em;}</style></defs><g id="Calque_1" data-name="Calque 1"><g class="cls-1"><circle class="cls-2" cx="14" cy="18" r="10"/></g><text class="cls-3" transform="translate(11.47 19.05)">PHP</text></g><g id="Calque_2" data-name="Calque 2"><g class="cls-1"><circle class="cls-4" cx="86" cy="53" r="10"/></g><text class="cls-3" transform="translate(79 53.44)">J<tspan class="cls-5" x="1.64" y="0">av</tspan><tspan x="4.68" y="0">aScript</tspan></text></g><g id="Calque_3" data-name="Calque 3"><g class="cls-6"><circle class="cls-7" cx="46" cy="39" r="10"/></g><text class="cls-3" transform="translate(42.17 40.05)"><tspan class="cls-8">H</tspan><tspan x="2.07" y="0">TML</tspan></text></g><g id="Calque_4" data-name="Calque 4"><g class="cls-9"><circle class="cls-10" cx="80" cy="22" r="10"/></g><text class="cls-3" transform="translate(78.11 23.05)">C#</text></g><g id="Calque_5" data-name="Calque 5"><g class="cls-11"><circle class="cls-12" cx="13" cy="84" r="10"/></g><text class="cls-3" transform="translate(10.23 85.05)">CSS</text></g><g id="Calque_6" data-name="Calque 6"><g class="cls-13"><circle class="cls-14" cx="81" cy="84" r="10"/></g><text class="cls-3" transform="translate(76.34 85.05)"><tspan class="cls-15">P</tspan><tspan x="1.87" y="0">ython</tspan></text></g><g id="Calque_7" data-name="Calque 7"><circle class="cls-16" cx="33.5" cy="89.5" r="8.5"/><text class="cls-3" transform="translate(27.96 90.67)">Node JS</text></g><g id="Calque_8" data-name="Calque 8"><circle class="cls-17" cx="12.5" cy="60.5" r="8.5"/><text class="cls-18" transform="translate(5.5 61.53)">Mic<tspan class="cls-19" x="2.41" y="0">r</tspan><tspan x="2.9" y="0">osoft SQL Se</tspan><tspan class="cls-20" x="11.46" y="0">r</tspan><tspan class="cls-21" x="11.98" y="0">v</tspan><tspan class="cls-22" x="12.71" y="0">er</tspan></text></g><g id="Calque_9" data-name="Calque 9"><circle class="cls-23" cx="60.5" cy="75.5" r="8.5"/><text class="cls-24" transform="translate(55.4 76.67)">Angular</text></g><g id="Calque_10" data-name="Calque 10"><g class="cls-25"><circle class="cls-26" cx="59.5" cy="11.5" r="8.5"/><text class="cls-24" transform="translate(53.96 12.67)">Asp.NET</text></g></g><g id="Calque_11" data-name="Calque 11"><circle class="cls-27" cx="31.5" cy="69.5" r="8.5"/><text class="cls-28" transform="translate(25.96 69.91)">PhpMyAdmin</text></g><g id="Calque_12" data-name="Calque 12"><circle class="cls-29" cx="91.5" cy="8.5" r="8.5"/><text class="cls-24" transform="translate(85.02 9.67)">Bootstrap</text></g><g id="Calque_13" data-name="Calque 13"><circle class="cls-29" cx="74.5" cy="64.5" r="8.5"/><text class="cls-24" transform="translate(69.79 65.67)">JQue<tspan class="cls-20" x="6.9" y="0">r</tspan><tspan x="7.95" y="0">y</tspan></text></g><g id="Calque_14" data-name="Calque 14"><circle class="cls-30" cx="27.5" cy="8.5" r="8.5"/><text class="cls-31" transform="translate(21.5 9.29)"><tspan class="cls-32">W</tspan><tspan x="2.18" y="0">o</tspan><tspan class="cls-33" x="3.57" y="0">r</tspan><tspan x="4.4" y="0">dP</tspan><tspan class="cls-33" x="7.33" y="0">r</tspan><tspan class="cls-34" x="8.16" y="0">ess</tspan></text></g><g id="Calque_15" data-name="Calque 15"><circle class="cls-35" cx="11.5" cy="33.5" r="8.5"/><text class="cls-24" transform="translate(6.56 34.67)">Apache</text></g><g id="Calque_16" data-name="Calque 16"><circle class="cls-16" cx="65.5" cy="47.5" r="8.5"/><text class="cls-24" transform="translate(63.78 48.67)">IIS</text></g><g id="Calque_17" data-name="Calque 17"><circle class="cls-29" cx="41.5" cy="19.5" r="8.5"/><text class="cls-24" transform="translate(35.63 20.67)">Symfony</text></g><g id="Calque_18" data-name="Calque 18"><circle class="cls-36" cx="54.5" cy="90.5" r="8.5"/><text class="cls-24" transform="translate(50.2 91.67)">MySQL</text></g><g id="Calque_19" data-name="Calque 19"><circle class="cls-37" cx="19" cy="52" r="5"/><text class="cls-38" transform="translate(16.95 52.56)">UML</text></g><g id="Calque_20" data-name="Calque 20"><circle class="cls-39" cx="91" cy="40" r="5"/><text class="cls-38" transform="translate(87.98 40.56)">GitHub</text></g><g id="Calque_21" data-name="Calque 21"><circle class="cls-40" cx="50" cy="58" r="5"/><text class="cls-41" transform="translate(46.48 58.53)">Responsi<tspan class="cls-42" x="5.72" y="0">v</tspan><tspan x="6.39" y="0">e</tspan></text></g><g id="Calque_22" data-name="Calque 22"><circle class="cls-43" cx="63" cy="29" r="5"/><text class="cls-38" transform="translate(60.13 29.56)">Scrum</text></g><g id="Calque_24" data-name="Calque 24"><circle class="cls-44" cx="28" cy="35" r="5"/><text class="cls-38" transform="translate(25.89 35.56)">Agile</text></g><g id="Calque_23" data-name="Calque 23"><circle class="cls-45" cx="35" cy="48" r="5"/><text class="cls-46" transform="translate(30.53 48.49)">Gestion de p<tspan class="cls-47" x="6.59" y="0">r</tspan><tspan x="6.99" y="0">ojet</tspan></text></g></svg>