<svg xmlns="http://www.w3.org/2000/svg" xmlns:xlink="http://www.w3.org/1999/xlink" viewBox="0 0 1366 700"><defs><style>.cls-1{fill:url(#Dégradé_sans_nom_6);}.cls-2{fill:url(#Dégradé_sans_nom_3);}</style><linearGradient id="Dégradé_sans_nom_6" x1="683" y1="507" x2="683" y2="718" gradientUnits="userSpaceOnUse"><stop offset="0" stop-color="#eb5b28"/><stop offset="1" stop-color="#9e1460"/></linearGradient><linearGradient id="Dégradé_sans_nom_3" x1="683" y1="560" x2="683" y2="718" gradientUnits="userSpaceOnUse"><stop offset="0" stop-color="#eb5b28"/><stop offset="0.27" stop-color="#cc3e3f"/><stop offset="0.54" stop-color="#b32751"/><stop offset="0.8" stop-color="#a3195c"/><stop offset="1" stop-color="#9e1460"/></linearGradient></defs><g id="Calque_3" data-name="Calque 3"><path class="cls-1" d="M0,543.29a321.28,321.28,0,0,0,70.43,15.23c97.15,9.69,148.16-31.16,217-46.4C414.5,484,431.34,581,591.22,578.81c137.65-1.89,153.2-74.19,283.87-59.44,102.27,11.54,103.45,57,192.1,51.47,74.91-4.7,112.82-39.62,221.26-43.5a532.41,532.41,0,0,1,77.55,2.9V718H0Z"/></g><g id="Calque_2" data-name="Calque 2"><path class="cls-2" d="M0,623.55c39.34-17,85.21-41.11,118-49.89,103.06-27.61,165.29-7.53,215.67,9.14,56,18.54,73.48,43.53,138,55,95.46,16.88,138.38-23.42,251.14-45.07,102.79-19.73,149.08,9.69,225.53,40.13,60.48,24.07,162.72-65,229.09-38.28,98.18,39.51,137.19-10.88,188.54-24.08V718H0Z"/></g></svg>