<svg id="Calque_1" data-name="Calque 1" xmlns="http://www.w3.org/2000/svg" xmlns:xlink="http://www.w3.org/1999/xlink" viewBox="0 0 1366 650"><defs><style>.cls-1{fill:url(#Dégradé_sans_nom_13);}.cls-2{fill:url(#Dégradé_sans_nom_4);}.cls-3{fill:url(#Dégradé_sans_nom_3);}</style><linearGradient id="Dégradé_sans_nom_13" x1="683" y1="426.36" x2="683" y2="652.36" gradientUnits="userSpaceOnUse"><stop offset="0" stop-color="#eb5b28"/><stop offset="0.04" stop-color="#e15130"/><stop offset="0.15" stop-color="#c83b41"/><stop offset="0.28" stop-color="#b52a4f"/><stop offset="0.43" stop-color="#a81d59"/><stop offset="0.63" stop-color="#a0165e"/><stop offset="1" stop-color="#9e1460"/></linearGradient><linearGradient id="Dégradé_sans_nom_4" x1="683" y1="433.86" x2="683" y2="650" gradientUnits="userSpaceOnUse"><stop offset="0" stop-color="#eb5b28"/><stop offset="0.01" stop-color="#ea5a29"/><stop offset="0.28" stop-color="#c93c41"/><stop offset="0.55" stop-color="#b12652"/><stop offset="0.79" stop-color="#a3195c"/><stop offset="1" stop-color="#9e1460"/></linearGradient><linearGradient id="Dégradé_sans_nom_3" x1="683" y1="492" x2="683" y2="650" gradientUnits="userSpaceOnUse"><stop offset="0" stop-color="#eb5b28"/><stop offset="0.27" stop-color="#cc3e3f"/><stop offset="0.54" stop-color="#b32751"/><stop offset="0.8" stop-color="#a3195c"/><stop offset="1" stop-color="#9e1460"/></linearGradient></defs><path class="cls-1" d="M0,517.57c24.29-21.51,69.94-55.43,133.75-67.4,21.9-4.11,116.63-21.88,192.81,39.94,43.94,35.65,48.42,70.78,81.11,73.22,34.59,2.58,45.45-35.61,101-74.06C524,478.66,588.56,434,660.94,441.85c70.65,7.63,78.87,57.66,148,57.41,23.38-.08,20.29-7.29,108.85-39.11,58.33-21,87.5-31.44,111.7-33.28,29.29-2.23,77.25,1.39,138,40.77,45.51,33.23,74.28,32.57,92.49,25,25.41-10.62,42.87-40.16,91.78-56.58,6.08-2,11.1-3.38,14.23-4.16V644L0,652.36Z"/><path class="cls-2" d="M0,471a314.87,314.87,0,0,0,70.43,15.59c97.15,9.93,148.16-31.92,217-47.53,127.07-28.81,143.91,70.57,303.79,68.32,137.65-1.93,153.2-76,283.87-60.89,102.27,11.82,103.45,58.42,192.1,52.72,74.91-4.81,112.82-40.58,221.26-44.55a519.28,519.28,0,0,1,77.55,3V650H0Z"/><path class="cls-3" d="M0,555.55c39.34-17,85.21-41.11,118-49.89,103.06-27.61,165.29-7.53,215.67,9.14,56,18.54,73.48,43.53,138,55,95.46,16.88,138.38-23.42,251.14-45.07,102.79-19.73,149.08,9.69,225.53,40.13,60.48,24.07,162.72-65,229.09-38.28,98.18,39.51,137.19-10.88,188.54-24.08V650H0Z"/></svg>